<svg xmlns="http://www.w3.org/2000/svg" width="62" height="62" viewBox="0 0 62 62">
  <g id="Group_1" data-name="Group 1" transform="translate(-27 -88)">
    <g id="Ellipse_1" data-name="Ellipse 1" transform="translate(27 88)" fill="none" stroke="#fff" stroke-width="1">
      <circle cx="31" cy="31" r="31" stroke="none"/>
      <circle cx="31" cy="31" r="30.5" fill="none"/>
    </g>
    <path id="Icon_awesome-calendar-alt" data-name="Icon awesome-calendar-alt" d="M0,26.83a2.776,2.776,0,0,0,2.776,2.776H23.13a2.776,2.776,0,0,0,2.776-2.776V11.1H0ZM18.5,15.5A.7.7,0,0,1,19.2,14.8H21.51a.7.7,0,0,1,.694.694V17.81a.7.7,0,0,1-.694.694H19.2a.7.7,0,0,1-.694-.694Zm0,7.4A.7.7,0,0,1,19.2,22.2H21.51a.7.7,0,0,1,.694.694v2.313a.7.7,0,0,1-.694.694H19.2a.7.7,0,0,1-.694-.694Zm-7.4-7.4A.7.7,0,0,1,11.8,14.8h2.313a.7.7,0,0,1,.694.694V17.81a.7.7,0,0,1-.694.694H11.8a.7.7,0,0,1-.694-.694Zm0,7.4A.7.7,0,0,1,11.8,22.2h2.313a.7.7,0,0,1,.694.694v2.313a.7.7,0,0,1-.694.694H11.8a.7.7,0,0,1-.694-.694ZM3.7,15.5a.7.7,0,0,1,.694-.694H6.708A.7.7,0,0,1,7.4,15.5V17.81a.7.7,0,0,1-.694.694H4.395A.7.7,0,0,1,3.7,17.81Zm0,7.4a.7.7,0,0,1,.694-.694H6.708A.7.7,0,0,1,7.4,22.9v2.313a.7.7,0,0,1-.694.694H4.395a.7.7,0,0,1-.694-.694ZM23.13,3.7H20.354V.925A.928.928,0,0,0,19.429,0h-1.85a.928.928,0,0,0-.925.925V3.7h-7.4V.925A.928.928,0,0,0,8.327,0H6.476a.928.928,0,0,0-.925.925V3.7H2.776A2.776,2.776,0,0,0,0,6.476V9.252H25.905V6.476A2.776,2.776,0,0,0,23.13,3.7Z" transform="translate(44.797 104.197)" fill="#fff"/>
  </g>
</svg>
