<svg xmlns="http://www.w3.org/2000/svg" width="62" height="62" viewBox="0 0 62 62">
  <g id="Group_2" data-name="Group 2" transform="translate(-109 -88)">
    <g id="Ellipse_1" data-name="Ellipse 1" transform="translate(109 88)" fill="none" stroke="#fff" stroke-width="1">
      <circle cx="31" cy="31" r="31" stroke="none"/>
      <circle cx="31" cy="31" r="30.5" fill="none"/>
    </g>
    <path id="Icon_awesome-pencil-alt" data-name="Icon awesome-pencil-alt" d="M28.791,8.218l-2.666,2.666a.7.7,0,0,1-.983,0L18.723,4.465a.694.694,0,0,1,0-.983L21.389.816a2.782,2.782,0,0,1,3.926,0l3.475,3.475A2.771,2.771,0,0,1,28.791,8.218ZM16.434,5.772,1.249,20.956.023,27.982a1.39,1.39,0,0,0,1.607,1.607l7.026-1.232L23.841,13.173a.694.694,0,0,0,0-.983L17.422,5.772a.7.7,0,0,0-.989,0ZM7.176,19.655a.806.806,0,0,1,0-1.145l8.9-8.9a.81.81,0,1,1,1.145,1.145l-8.9,8.9a.806.806,0,0,1-1.145,0ZM5.089,24.518H7.864v2.1l-3.73.653-1.8-1.8.653-3.73h2.1Z" transform="translate(125.195 104.192)" fill="#fff"/>
  </g>
</svg>
